<?xml version="1.0" encoding="iso-8859-1"?>
<!-- Uploaded to: SVG Repo, www.svgrepo.com, Generator: SVG Repo Mixer Tools -->
<!DOCTYPE svg PUBLIC "-//W3C//DTD SVG 1.1//EN" "http://www.w3.org/Graphics/SVG/1.1/DTD/svg11.dtd">
<svg fill="#000000" height="800px" width="800px" version="1.1" id="Capa_1" xmlns="http://www.w3.org/2000/svg" xmlns:xlink="http://www.w3.org/1999/xlink" 
	 viewBox="0 0 430.905 430.905" xml:space="preserve">
<g>
	<path d="M73.134,151.433h212.337c4.822,0,8.543-2.061,9.955-5.513c1.082-2.647,0.481-5.659-1.527-7.718l-85.278-92.536
		l-0.456-0.456c-7.93-7.788-21.203-20.821-33.258-20.821c-1.174,0-2.326,0.123-3.425,0.364
		c-10.503,2.312-27.134,21.282-33.564,29.033c-1.376-0.228-2.779-0.343-4.196-0.343c-10.536,0-20.378,6.231-24.621,15.547
		l-44.306,70.52l-0.207,0.334l-0.15,0.344c-0.537,1.231-1.963,4.501,0.12,7.682C66.891,151.433,71.59,151.433,73.134,151.433z"/>
	<path d="M429.795,91.966c-2.526-4.911-8.556-6.845-13.467-4.317l-44.974,23.138c-9.186,4.726-19.784,15.161-24.651,24.272
		l-20.202,37.811c-0.922-0.151-1.862-0.251-2.826-0.251H13.026c-5.329,0-9.589,2.14-11.688,5.872
		c-2.099,3.732-1.715,8.484,1.054,13.039L68.08,299.577c0.811,1.334,1.813,2.612,2.946,3.823l-4.828,10.463
		c-1.675-0.184-3.375-0.285-5.098-0.285c-25.623,0-46.469,20.846-46.469,46.469c0,25.623,20.846,46.469,46.469,46.469
		c25.623,0,46.469-20.846,46.469-46.469c0-16.792-8.954-31.532-22.338-39.697l3.415-7.402c1.293,0.22,2.576,0.347,3.824,0.347h0.235
		l29.819-2.814l66.652,55.303c6.132,5.088,13.52,7.778,21.171,7.778c1.443,0,2.896-0.096,4.351-0.289
		c9.169-1.219,17.223-6.153,22.679-13.895l45.092-63.981c8.367-1.281,15.764-7.874,17.713-16.16l38.893-87.106l0.11-0.541
		c0.002-0.01,0.003-0.021,0.005-0.031l25.152-47.074c2.93-5.483,10.633-13.068,16.162-15.913l44.974-23.138
		C430.389,102.906,432.322,96.877,429.795,91.966z M221.03,347.855c-2.206,3.13-5.391,5.115-8.967,5.591
		c-3.573,0.475-7.169-0.609-10.116-3.055l-51.3-42.565l105.62-9.967L221.03,347.855z"/>
</g>
</svg>